<svg xmlns="http://www.w3.org/2000/svg" id="Group_1546" width="131.223" height="134.744" data-name="Group 1546" viewBox="0 0 131.223 134.744">
    <defs>
        <style>
            .cls-1,.cls-2{fill:#95131d}.cls-2{fill-rule:evenodd}
        </style>
    </defs>
    <path id="Path_8244" d="M-96 55.97l-10.693-2.27.346-1.63 1.618.345a4.5 4.5 0 0 1-1.253-1.473 2.063 2.063 0 0 1-.118-1.242 3.627 3.627 0 0 1 .98-1.738l1.551.983a2.614 2.614 0 0 0-.677 1.242 1.782 1.782 0 0 0 .13 1.145 1.989 1.989 0 0 0 .85.883 7.138 7.138 0 0 0 2.049.752l5.6 1.191zm-6.544 2.731a13.43 13.43 0 0 1-.427 3.076 6.917 6.917 0 0 0-.235 1.64 1.58 1.58 0 0 0 .3.9 1.568 1.568 0 0 0 .726.557 1.586 1.586 0 0 0 1.356-.081 2.429 2.429 0 0 0 1.047-1.355 3.825 3.825 0 0 0 .245-1.946 2.888 2.888 0 0 0-.757-1.6 4.452 4.452 0 0 0-1.622-.943zm3.919 1.34a7.035 7.035 0 0 1 .444 2.292 5.745 5.745 0 0 1-.4 2.037 3.962 3.962 0 0 1-1.811 2.269 2.914 2.914 0 0 1-2.446.1 2.968 2.968 0 0 1-1.24-.867 3.014 3.014 0 0 1-.65-1.274 4.564 4.564 0 0 1-.09-1.463 13.037 13.037 0 0 1 .331-1.635 16.855 16.855 0 0 0 .588-3.314q-.352-.147-.446-.182a2.031 2.031 0 0 0-1.677-.081 3.075 3.075 0 0 0-1.343 1.743 3.272 3.272 0 0 0-.265 1.968 2.809 2.809 0 0 0 1.184 1.441l-.88 1.6a4.483 4.483 0 0 1-1.461-1.429 3.547 3.547 0 0 1-.443-1.924 7.311 7.311 0 0 1 .527-2.453 6.569 6.569 0 0 1 1.123-2 3.027 3.027 0 0 1 1.236-.907 2.934 2.934 0 0 1 1.383-.086 10.664 10.664 0 0 1 1.627.527l2.306.885a25.844 25.844 0 0 0 3.091 1.059 4.1 4.1 0 0 0 1.394.034l-.693 1.807a3.92 3.92 0 0 1-1.393-.148zm-6.73 17.339l-13.2-7.314.9-1.62 4.733 2.625a4.147 4.147 0 0 1 .272-3.593 4.4 4.4 0 0 1 1.444-1.61 2.78 2.78 0 0 1 1.775-.481 6.112 6.112 0 0 1 2.329.85l6.059 3.358-.9 1.622-6.057-3.359a2.871 2.871 0 0 0-2.059-.454 2.248 2.248 0 0 0-1.382 1.182 3 3 0 0 0-.375 1.562 2.394 2.394 0 0 0 .512 1.466 5.3 5.3 0 0 0 1.615 1.247l5.228 2.9zm-3.02 3.7l-8.611-6.728 1.142-1.461 8.61 6.728zm-10.213-7.98l-1.681-1.312 1.142-1.461 1.681 1.312zm5.2 13.638l-10.829-4.41 1.334-1.431 6.387 2.747q1.034.443 2.088.99a31.623 31.623 0 0 1-1.052-1.921l-3.218-6.324 1.3-1.394 5.169 10.48zm-9.162.873a13.486 13.486 0 0 1-1.909 2.449 6.928 6.928 0 0 0-1.024 1.3 1.581 1.581 0 0 0-.187.929 1.568 1.568 0 0 0 .351.846 1.582 1.582 0 0 0 1.215.606 2.411 2.411 0 0 0 1.584-.65 3.8 3.8 0 0 0 1.186-1.561 2.89 2.89 0 0 0 .145-1.767 4.473 4.473 0 0 0-.932-1.627zm2.725 3.118a7.064 7.064 0 0 1-.762 2.208 5.794 5.794 0 0 1-1.363 1.563 3.98 3.98 0 0 1-2.7 1.059 2.911 2.911 0 0 1-2.166-1.14 2.97 2.97 0 0 1-.64-1.37 3.034 3.034 0 0 1 .073-1.429 4.55 4.55 0 0 1 .655-1.312 13.2 13.2 0 0 1 1.1-1.25 16.724 16.724 0 0 0 2.166-2.576l-.294-.382a2.035 2.035 0 0 0-1.414-.907 3.077 3.077 0 0 0-2.034.838 3.276 3.276 0 0 0-1.213 1.571 2.808 2.808 0 0 0 .306 1.839l-1.562.944a4.505 4.505 0 0 1-.551-1.968 3.553 3.553 0 0 1 .578-1.887 7.305 7.305 0 0 1 1.686-1.861 6.58 6.58 0 0 1 1.973-1.174 3.048 3.048 0 0 1 1.524-.167 2.979 2.979 0 0 1 1.242.618 10.7 10.7 0 0 1 1.145 1.269l1.554 1.921a25.748 25.748 0 0 0 2.149 2.463 4.141 4.141 0 0 0 1.189.726l-1.5 1.218a3.882 3.882 0 0 1-1.141-.812zm-12.13 14.15l-1-1.437a4.166 4.166 0 0 0 1.014-.353 2.034 2.034 0 0 0 .775-.645 1.646 1.646 0 0 0 .265-.794 8.515 8.515 0 0 0-.147-1.481c-.019-.11-.039-.267-.068-.478l-8.8-7.721 1.762-.937 4.98 4.518q.953.859 1.887 1.865a25.1 25.1 0 0 1-.5-2.557l-.927-6.719 1.635-.87 1.547 11.765a21.764 21.764 0 0 1 .247 2.677 3.668 3.668 0 0 1-.368 1.716 2.684 2.684 0 0 1-1.145 1.095 3.724 3.724 0 0 1-1.157.358zm-13.724-5.321a4.745 4.745 0 0 0 1.86 2.682 2.674 2.674 0 0 0 2.314.3 2.626 2.626 0 0 0 1.627-1.611 4.584 4.584 0 0 0-.184-3.144 5.125 5.125 0 0 0-1.888-2.831 2.653 2.653 0 0 0-2.358-.3 2.567 2.567 0 0 0-1.62 1.625 4.967 4.967 0 0 0 .249 3.281zm7.312 3.252l-.449-1.306a3.394 3.394 0 0 1-2.36 2.534 4.285 4.285 0 0 1-2.507.1 4.725 4.725 0 0 1-2.262-1.35 6.945 6.945 0 0 1-1.534-2.611 7.811 7.811 0 0 1-.453-2.983 4.3 4.3 0 0 1 .883-2.463 4.386 4.386 0 0 1 2.076-1.47 3.638 3.638 0 0 1 1.8-.176 3.644 3.644 0 0 1 1.542.617l-1.762-5.118 1.74-.6 4.912 14.265zm-11.327 3.127l-2.084-10.726 1.821-.355 2.084 10.728zm-2.471-12.716l-.407-2.093 1.821-.355.407 2.093zm-6.454 13.729l-7.138-14.52 2.155-.187 4.861 10.576c.392.846.725 1.647 1 2.39.164-.84.361-1.681.6-2.53l3.1-11.273 2.03-.177-4.571 15.545zm-16.442-6.877a13.488 13.488 0 0 1-3.1-.157 6.871 6.871 0 0 0-1.654-.091 1.58 1.58 0 0 0-.87.378 1.576 1.576 0 0 0-.492.774 1.584 1.584 0 0 0 .2 1.343 2.423 2.423 0 0 0 1.441.926 3.81 3.81 0 0 0 1.959.074 2.893 2.893 0 0 0 1.532-.894 4.452 4.452 0 0 0 .8-1.7zm-.992 4.02a7.019 7.019 0 0 1-2.245.644 5.761 5.761 0 0 1-2.064-.22 3.973 3.973 0 0 1-2.419-1.606 2.917 2.917 0 0 1-.309-2.427 2.951 2.951 0 0 1 .757-1.311 2.994 2.994 0 0 1 1.211-.76 4.53 4.53 0 0 1 1.451-.216 13.035 13.035 0 0 1 1.657.186 16.911 16.911 0 0 0 3.353.3c.076-.242.123-.4.142-.459a2.031 2.031 0 0 0-.066-1.679 3.076 3.076 0 0 0-1.853-1.186 3.282 3.282 0 0 0-1.983-.093 2.811 2.811 0 0 0-1.333 1.306l-1.669-.738a4.506 4.506 0 0 1 1.3-1.579 3.55 3.55 0 0 1 1.878-.608 7.3 7.3 0 0 1 2.49.311 6.608 6.608 0 0 1 2.095.944 3.023 3.023 0 0 1 1.01 1.152 2.943 2.943 0 0 1 .206 1.372 10.578 10.578 0 0 1-.382 1.666l-.681 2.375a25.125 25.125 0 0 0-.785 3.172 4.084 4.084 0 0 0 .086 1.392l-1.86-.534a3.909 3.909 0 0 1 .012-1.397zm-18.853-1.111l.547-1.664a4.232 4.232 0 0 0 .892.6 2.024 2.024 0 0 0 .981.23 1.647 1.647 0 0 0 .794-.265 8.593 8.593 0 0 0 1.095-1.008c.076-.081.189-.191.341-.341l.872-11.675 1.807.843-.61 6.7c-.076.853-.191 1.73-.355 2.63a25.789 25.789 0 0 1 1.742-1.942l4.809-4.784 1.677.782-8.463 8.316a21.96 21.96 0 0 1-1.992 1.809 3.675 3.675 0 0 1-1.591.738 2.688 2.688 0 0 1-1.562-.257 3.666 3.666 0 0 1-.984-.71zm-2.245-6.2l5.463-9.464 1.606.927-5.463 9.464zm6.476-11.219l1.068-1.846 1.6.927-1.066 1.846zm-6.926 4.356a13.614 13.614 0 0 1-2.792-1.358 6.9 6.9 0 0 0-1.486-.73 1.58 1.58 0 0 0-.949.008 1.576 1.576 0 0 0-.753.52 1.585 1.585 0 0 0-.343 1.314 2.426 2.426 0 0 0 .966 1.414 3.81 3.81 0 0 0 1.774.836 2.9 2.9 0 0 0 1.76-.225 4.483 4.483 0 0 0 1.4-1.252zm-2.483 3.312a7.013 7.013 0 0 1-2.318-.285 5.745 5.745 0 0 1-1.814-1.008 3.979 3.979 0 0 1-1.6-2.424 2.918 2.918 0 0 1 .666-2.356 2.965 2.965 0 0 1 1.208-.91 3.03 3.03 0 0 1 1.412-.226 4.509 4.509 0 0 1 1.419.368 12.987 12.987 0 0 1 1.453.819 16.73 16.73 0 0 0 2.971 1.583l.311-.367a2.032 2.032 0 0 0 .595-1.571 3.078 3.078 0 0 0-1.243-1.816 3.3 3.3 0 0 0-1.787-.861 2.831 2.831 0 0 0-1.738.682l-1.248-1.331a4.506 4.506 0 0 1 1.811-.948 3.555 3.555 0 0 1 1.966.172 7.337 7.337 0 0 1 2.171 1.26 6.6 6.6 0 0 1 1.559 1.687 3.026 3.026 0 0 1 .48 1.456 2.952 2.952 0 0 1-.346 1.343 10.607 10.607 0 0 1-1 1.383l-1.554 1.919a25.89 25.89 0 0 0-1.963 2.615 4.072 4.072 0 0 0-.463 1.314l-1.505-1.218a3.9 3.9 0 0 1 .557-1.274zm-18.233-16.527l8.371-7.025 1.064 1.269-1.174.985a3.875 3.875 0 0 1 1.868.22 3.847 3.847 0 0 1 1.628 1.176 3.58 3.58 0 0 1 .89 1.848 2.677 2.677 0 0 1-.375 1.745 3.93 3.93 0 0 1 3.637 1.355 3.322 3.322 0 0 1 .916 2.5 3.837 3.837 0 0 1-1.561 2.451l-5.748 4.823-1.182-1.409 5.273-4.426a5.115 5.115 0 0 0 1.11-1.166 1.607 1.607 0 0 0 .182-1.007A2.06 2.06 0 0 0-203.9 79a2.583 2.583 0 0 0-1.819-.973 3.383 3.383 0 0 0-2.368.993l-4.865 4.081-1.191-1.417 5.439-4.564a3.137 3.137 0 0 0 1.13-1.539 1.716 1.716 0 0 0-.48-1.532 2.678 2.678 0 0 0-1.245-.841 2.329 2.329 0 0 0-1.539.035 6.781 6.781 0 0 0-1.944 1.242l-4.343 3.644zm.181-11.765a4.642 4.642 0 0 0-2.385 2.243 2.931 2.931 0 0 0 .113 2.529 2.925 2.925 0 0 0 1.98 1.569 4.776 4.776 0 0 0 3.265-.639 4.512 4.512 0 0 0 2.321-2.216 2.937 2.937 0 0 0-.11-2.513 2.951 2.951 0 0 0-1.973-1.581 4.629 4.629 0 0 0-3.211.615zm-.865-1.7a5.624 5.624 0 0 1 4.774-.535 5.085 5.085 0 0 1 2.642 2.508 4.9 4.9 0 0 1 .356 3.956 5.61 5.61 0 0 1-2.985 3.125 7.223 7.223 0 0 1-3.245.943 4.475 4.475 0 0 1-2.51-.785 5.371 5.371 0 0 1-1.794-2.051 4.908 4.908 0 0 1-.373-3.975A5.87 5.87 0 0 1-219 63.248zm-4.2-12.179l.647 1.775a4.124 4.124 0 0 0-1.633 1.083 3.406 3.406 0 0 0-.742 1.769 5.776 5.776 0 0 0 .169 2.351 5.577 5.577 0 0 0 .848 1.86 2.81 2.81 0 0 0 1.236 1.019 2.164 2.164 0 0 0 1.36.079 1.949 1.949 0 0 0 1.089-.721 3.036 3.036 0 0 0 .508-1.541 27.6 27.6 0 0 0 .017-2.785 13.7 13.7 0 0 1 .155-3.057 4.091 4.091 0 0 1 .939-1.921 3.454 3.454 0 0 1 1.679-.995 3.826 3.826 0 0 1 2.226.073 4.019 4.019 0 0 1 1.949 1.437 7.24 7.24 0 0 1 1.213 2.54 7.557 7.557 0 0 1 .243 3 4.271 4.271 0 0 1-1.024 2.316 4.607 4.607 0 0 1-2.1 1.331l-.635-1.812a3.1 3.1 0 0 0 1.816-1.569 4.056 4.056 0 0 0 .025-2.728 4.232 4.232 0 0 0-1.324-2.38 2 2 0 0 0-1.758-.387 1.717 1.717 0 0 0-1.142.914 7.924 7.924 0 0 0-.258 3.186 20.14 20.14 0 0 1-.064 3.475 4.632 4.632 0 0 1-.983 2.279 3.757 3.757 0 0 1-1.912 1.159 4.074 4.074 0 0 1-2.37-.078 4.555 4.555 0 0 1-2.113-1.483 6.917 6.917 0 0 1-1.323-2.654 8.63 8.63 0 0 1-.311-3.47 4.8 4.8 0 0 1 1.171-2.566 5.069 5.069 0 0 1 2.403-1.49z" class="cls-1" data-name="Path 8244" transform="translate(226.843 27.792)"/>
    <path id="Path_8245" d="M-136.039 55.992q.983-1.125 1.944-2.242 1.069-1.333.777-2.176a3.368 3.368 0 0 0-.552-1.02 2.617 2.617 0 0 0-.968-.723l-1.215 1.294c.346.27.659.535.938.8a2.019 2.019 0 0 1 .471.556c.042.122-.041.336-.248.647q-.953 1.34-1.914 2.657zm10.559-9.532l.493 1.221-7.458 3.012-.508 2.307 8.7-3.513.573 1.417 1.672-.676-1.8-4.448zm-2.655-5.284l.855 1.541L-129.6 44l-.422-.76a.279.279 0 0 0-.275-.127.924.924 0 0 0-.427.128 1.291 1.291 0 0 0-.671.76l-.652 2.059a1.186 1.186 0 0 0-.039.434.865.865 0 0 0 .081.345.612.612 0 0 0 .358.3.54.54 0 0 0 .441-.037l.779-.432 1.257 2.263 1.762-.976-1.255-2.265 2.321-1.285.843 1.522 1.578-.875-2.633-4.752zm-2.309-3.529l.7 1.117-6.819 4.262-.1 2.363 7.954-4.969.809 1.3 1.53-.956-2.542-4.067zm-.953-1.4l.841 1.039 1.4-1.135-3.032-3.745-1.4 1.137 1.23 1.517a.62.62 0 0 1 .024.485 1.009 1.009 0 0 1-.333.448 1.411 1.411 0 0 1-.8.316.779.779 0 0 1-.716-.294l-.561-.693a1.05 1.05 0 0 0-.525.262 4.072 4.072 0 0 0-1.3 2.066 2.616 2.616 0 0 0 .323 2.524 3.677 3.677 0 0 0 1.9 1.272l1.88-1.524a3.265 3.265 0 0 1-1.492-.307 3.207 3.207 0 0 1-1.172-.892 1.144 1.144 0 0 1-.235-.576.541.541 0 0 1 .184-.53 1.791 1.791 0 0 0 1.441.361 3.12 3.12 0 0 0 1.52-.684 2.69 2.69 0 0 0 .82-1.05zM-137.71 32a1.719 1.719 0 0 0-1.495-.451 3.118 3.118 0 0 0-1.757 1.074 4.214 4.214 0 0 0-.834 2.328 13.54 13.54 0 0 0 .01 3.348l.794.361q.119-3.922.987-4.853a1.441 1.441 0 0 1 .883-.512 1 1 0 0 1 .806.287c.331.309.4.571.193.789l-1.2 1.289.639 1.524 1.4-1.5a.787.787 0 0 1 .6-.265.868.868 0 0 1 .611.247 1.491 1.491 0 0 1 .365.542 2.259 2.259 0 0 0 .39-1.073 1.046 1.046 0 0 0-.3-.927l-.155-.145a1.021 1.021 0 0 0-.662-.269 1.361 1.361 0 0 0-.752.169 2.013 2.013 0 0 0 .027-.932 1.806 1.806 0 0 0-.55-1.031zm.535-4.4l-1.23 1.319 4.3 4.01 1.231-1.319zm-5.046-1.549l1.037.811-4.951 6.338.715 2.255 5.775-7.39 1.2.939 1.11-1.421-3.779-2.953zm-2.557-3.774l-.956 1.53 3.51 2.193.956-1.53zm1.4 7.177a3.346 3.346 0 0 1-2.579-.235c-.36-.226-.473-.486-.336-.785a1.277 1.277 0 0 1 1.36-.514 4.37 4.37 0 0 1 1.831.655l.118-1.753a3.5 3.5 0 0 0-2.26-.649 2.185 2.185 0 0 0-1.625 1.1 2.545 2.545 0 0 0-.277 2.066 2.728 2.728 0 0 0 1.2 1.711 2.336 2.336 0 0 0 .659.285 1.805 1.805 0 0 0 .723.027zm-8.248-5.662l-1.108 2.174a3.02 3.02 0 0 1 1.155-.162 2.657 2.657 0 0 1 1 .284 1.1 1.1 0 0 1 .267.576.975.975 0 0 1-.1.554 1.989 1.989 0 0 1-.774.772 3.574 3.574 0 0 1-1.115.458 1.391 1.391 0 0 0-.2.757 1.049 1.049 0 0 0 .659.765 1.16 1.16 0 0 0 1.279-.218 4.052 4.052 0 0 0 1.164-1.444 3.571 3.571 0 0 0 .312-2.341 2.7 2.7 0 0 0-1.446-2.024 1.37 1.37 0 0 0-1.097-.153zm1.959-1.742l3.687 1.878.818-1.606-3.686-1.878zm-2.824-5.87a29.406 29.406 0 0 0-.809-.9 4.638 4.638 0 0 0-1.106-.958l-1.921-.855.206 2.252 1.182.527a9.671 9.671 0 0 1 1.863 1.294 5.07 5.07 0 0 1 1.426 1.495l1.356.6q-.314-1.951-.583-3.279a28.753 28.753 0 0 0-.821-3.27c-.324-1.01-.642-1.586-.953-1.723l-1.919-.855.2 2.27.6.269a4.689 4.689 0 0 1 .791 1.769q.358 1.073.484 1.363zm-1.811 3.927l1.236.451-2.752 7.557 1.378 1.924 3.208-8.814 1.436.522.617-1.694-4.507-1.64zm.032.122l.5-1.733-4.018-1.152-.5 1.733zm-.11 3.458a3.637 3.637 0 0 1-2.394.417.819.819 0 0 1-.6-1.076q.2-.694 2.659-.65l-.191-1.644a5.13 5.13 0 0 0-2.361.382 2.394 2.394 0 0 0-1.392 1.544 3.014 3.014 0 0 0 .41 1.961 2.555 2.555 0 0 0 1.546 1.226 2.85 2.85 0 0 0 .807.11 3.067 3.067 0 0 0 .9-.149zm-10.464 5.743a2.46 2.46 0 0 0-.524-1.792 2.238 2.238 0 0 0-1.655-.807 3.206 3.206 0 0 0-1.4.169 2.439 2.439 0 0 0-1.068.978l.964 1.409a3.43 3.43 0 0 1 .882-.907 1.315 1.315 0 0 1 .774-.255.841.841 0 0 1 .6.3.822.822 0 0 1 .213.611 1.166 1.166 0 0 1-.4.865 2.086 2.086 0 0 1-1.492.321 3.656 3.656 0 0 1-2.182-1.343 10.958 10.958 0 0 1-1.5-2.02l-1.144-.079q1.485 2.209 1.524 2.255a8.563 8.563 0 0 0 1.622 1.752 3.733 3.733 0 0 0 2.029.8 2.578 2.578 0 0 0 1.953-.544 2.386 2.386 0 0 0 .8-1.714zM-169.462 18h1.316v8.04l1.953 1.336V18h1.527v-1.8h-4.8zm.181-.291l-.127-1.8-4.784.334.125 1.8zm-2.713 1.978a1.31 1.31 0 0 0-1.03.635 2.308 2.308 0 0 0-.333 1.48 5.207 5.207 0 0 0 .9 2.49 17.806 17.806 0 0 0 2.292 2.671l.813-.547a8.766 8.766 0 0 1-1.762-1.929 4.051 4.051 0 0 1-.8-1.806 1.027 1.027 0 0 1 .2-.7.932.932 0 0 1 .731-.34l2.816-.2-.14-2.012zm-12.361.687l1.265-.363 2.216 7.731 2.247.747-2.586-9.015 1.468-.422-.5-1.733-4.61 1.321zm-4.488-.025l.676 1.674 3.836-1.551-.676-1.672zm6.627 3.091a3.345 3.345 0 0 1-1.708 1.948c-.394.16-.671.1-.833-.189a1.28 1.28 0 0 1 .383-1.4 4.424 4.424 0 0 1 1.606-1.1l-1.348-1.125a3.5 3.5 0 0 0-1.853 1.446 2.19 2.19 0 0 0-.066 1.961 2.547 2.547 0 0 0 1.508 1.439 2.72 2.72 0 0 0 2.086.037 2.241 2.241 0 0 0 .62-.365 1.8 1.8 0 0 0 .446-.568zm-7.914-2.564a18.506 18.506 0 0 0-3.687-1.865 4.143 4.143 0 0 0-2.662-.4l-1.919.855 1.811 1.353 1.182-.525a2.617 2.617 0 0 1 1.647.046 9.689 9.689 0 0 1 2.427 1.068zm-2.569 5.2a1.611 1.611 0 0 0-.617 1.228 3.233 3.233 0 0 0 .481 1.637 3.973 3.973 0 0 0 2.061 1.747 3.089 3.089 0 0 0 2.774-.035l.432-.314a6.146 6.146 0 0 1 .861.373 1.618 1.618 0 0 1 .654.608l1.318-.731c-.25-.216-.448-.382-.591-.5a2.673 2.673 0 0 0-1.248-.546 3.291 3.291 0 0 0 .174-.909 1.483 1.483 0 0 0-.209-.6 3.147 3.147 0 0 0-.7-.949 1.144 1.144 0 0 0-1.319.029 1.364 1.364 0 0 0-.62.743 1.047 1.047 0 0 0 .034.916 1.055 1.055 0 0 0 .485.434 1.093 1.093 0 0 1-.348.291 1.591 1.591 0 0 1-1.323.09 1.648 1.648 0 0 1-.985-.7 1.582 1.582 0 0 1-.176-.909.9.9 0 0 1 .485-.765l2.451-1.358-1.627-2.934 1.541-.853-.873-1.578-6.85 3.8.875 1.578 3.8-2.108.762 1.373zm-7.039 3.231l1.037-.811 4.951 6.338 2.361-.149-5.775-7.392 1.2-.939-1.11-1.422-3.78 2.953zm-3.41 3.2l.948-.914 5.586 5.785 2.334-.4-6.517-6.746 1.1-1.061-1.253-1.3-3.451 3.333zm-1 4.086a.82.82 0 0 0-.147.639 1.03 1.03 0 0 0 .338.7.673.673 0 0 0 .505.169l2.662.056a.989.989 0 0 0 .725-.233c.095-.1.1-.191.032-.257l-1.483-1.334 2.172-2.414-1.324-1.193zm-3.718-1.578l1.34 1.208 3.365-3.738-1.34-1.208zm-1.451 5.317l.774-1.066 6.505 4.734 2.23-.794-7.592-5.516.9-1.235-1.459-1.061-2.819 3.88zM-211.6 44.2l.677-1.128 6.9 4.142 2.15-.985-8.039-4.831.785-1.309-1.546-.929-2.47 4.111zm-4.375 6.059l1.684.647 2.258-5.885-1.684-.645zm8.757-.367a1.93 1.93 0 0 0-1.262 1.152 1.348 1.348 0 0 0-.024.98 1.118 1.118 0 0 0 .689.662.937.937 0 0 0 .978-.147 2.36 2.36 0 0 0 .7-1.027l.167-.436 1.91-.654-.076-1.166-1.718.387a2.654 2.654 0 0 0-.351-1.419 1.9 1.9 0 0 0-.97-.883 2.093 2.093 0 0 0-1.978.535 6.606 6.606 0 0 0-1.53 1.618l1.552-4.042-1.645-.63-1.711 4.458a1.433 1.433 0 0 0-.03.965.95.95 0 0 0 .569.65q1.031.4 2.557-1.007t1.924-1.25a.552.552 0 0 1 .351.475 1.518 1.518 0 0 1-.097.781z" class="cls-1" data-name="Path 8245" transform="translate(234.336 1.985)"/>
    <path id="Path_8246" d="M-105.234 49.428l.753 1.439a1.175 1.175 0 0 0-.535.623 1.4 1.4 0 0 0 .056.909 1.573 1.573 0 0 0 .522.809.5.5 0 0 0 .471.061.421.421 0 0 0 .25-.206 1.292 1.292 0 0 0 .024-.574 8.64 8.64 0 0 1-.062-2.578 1.562 1.562 0 0 1 1.055-1.121 1.67 1.67 0 0 1 1.451.157 2.892 2.892 0 0 1 1.135 1.645 3.377 3.377 0 0 1 .218 1.878 2.058 2.058 0 0 1-.861 1.176l-.755-1.336a.936.936 0 0 0 .392-.524 1.343 1.343 0 0 0-.073-.792 1.732 1.732 0 0 0-.463-.8.386.386 0 0 0-.367-.066.35.35 0 0 0-.221.245 6.025 6.025 0 0 0 .059 1.562 4.4 4.4 0 0 1-.091 1.919 1.477 1.477 0 0 1-.963.863 1.833 1.833 0 0 1-1.579-.193 3.077 3.077 0 0 1-1.233-1.75 3.385 3.385 0 0 1-.164-2.015 2.292 2.292 0 0 1 .981-1.333m.84-3.13a1.538 1.538 0 0 0 .807-.772 1.1 1.1 0 0 0-.024-.907 1.11 1.11 0 0 0-.713-.622 1.478 1.478 0 0 0-1.083.132zm-1.505.6l.432 1.559a2.609 2.609 0 0 1-1.622-.316 2.855 2.855 0 0 1-1.118-1.311 2.708 2.708 0 0 1-.052-2.554 3.469 3.469 0 0 1 1.637-1.424 3.337 3.337 0 0 1 2.47-.282 2.586 2.586 0 0 1 1.611 1.441 2.691 2.691 0 0 1 .091 2.311 3.961 3.961 0 0 1-2.16 1.831l-1.7-3.637a1.609 1.609 0 0 0-.839.819 1.215 1.215 0 0 0 .03 1.005.989.989 0 0 0 .453.486 1.268 1.268 0 0 0 .766.076zm1.564-6.4l-1.1.637-.547-.946-2.111 1.22a6.04 6.04 0 0 0-.733.458.36.36 0 0 0-.1.225.457.457 0 0 0 .066.274 2.162 2.162 0 0 0 .456.483l-1.005.738a3.176 3.176 0 0 1-.841-.976 2.058 2.058 0 0 1-.265-.748 1.139 1.139 0 0 1 .073-.63 1.468 1.468 0 0 1 .427-.507 7.761 7.761 0 0 1 .951-.608l2.285-1.319-.368-.637 1.1-.637.368.635 1.042-.6 1.611.924-1.851 1.069zm-5.909-3.669a9.931 9.931 0 0 1-.736-.684 3.051 3.051 0 0 0-.708-.579.669.669 0 0 0-.644.046.784.784 0 0 0-.351.527.875.875 0 0 0 .144.669 1.382 1.382 0 0 0 .688.537.994.994 0 0 0 .654.032 3.122 3.122 0 0 0 .687-.373zm-.076-2.5l-.571-1.361a2.258 2.258 0 0 1 1.547 0 3.1 3.1 0 0 1 1.323 1.262 3.823 3.823 0 0 1 .657 1.478 1.6 1.6 0 0 1-.139.968 3.312 3.312 0 0 1-1.086.961l-1.578 1a6.386 6.386 0 0 0-.944.706 3.476 3.476 0 0 0-.524.682l-.863-1.329a6.56 6.56 0 0 1 .312-.387c.066-.073.108-.123.128-.149a2.952 2.952 0 0 1-.981-.41 2.515 2.515 0 0 1-.709-.728 2.077 2.077 0 0 1-.378-1.51 1.693 1.693 0 0 1 .784-1.152 1.729 1.729 0 0 1 .9-.292 1.609 1.609 0 0 1 .89.242 5.41 5.41 0 0 1 1.007.865 8.657 8.657 0 0 0 1.176 1.09l.133-.086a.833.833 0 0 0 .429-.551 1.355 1.355 0 0 0-.3-.828 1.136 1.136 0 0 0-.505-.468 1.159 1.159 0 0 0-.708-.004zm-6.051-1.074l-1.007-1.245 4.7-3.807.936 1.155-.667.541a2.569 2.569 0 0 1 1.056.029 1.266 1.266 0 0 1 .586.416 2.012 2.012 0 0 1 .429 1.01l-1.4.492a1.387 1.387 0 0 0-.27-.747.878.878 0 0 0-.5-.328 1.241 1.241 0 0 0-.752.137 9.384 9.384 0 0 0-1.66 1.172zm-.37-5.784a1.545 1.545 0 0 0 .512-.993 1.1 1.1 0 0 0-.318-.85 1.109 1.109 0 0 0-.877-.356 1.469 1.469 0 0 0-.98.478zm-1.228 1.057l.917 1.334a2.605 2.605 0 0 1-1.637.228 2.83 2.83 0 0 1-1.483-.875 2.705 2.705 0 0 1-.882-2.4 3.468 3.468 0 0 1 1.084-1.88 3.341 3.341 0 0 1 2.242-1.071 2.589 2.589 0 0 1 1.995.84 2.687 2.687 0 0 1 .838 2.154 3.96 3.96 0 0 1-1.448 2.436l-2.787-2.887a1.611 1.611 0 0 0-.527 1.047 1.212 1.212 0 0 0 .356.939.985.985 0 0 0 .586.314 1.258 1.258 0 0 0 .746-.18zm-6.209-7.255a2.6 2.6 0 0 0-.623 1.279 1.266 1.266 0 0 0 .48 1.184 1.135 1.135 0 0 0 .99.2 2.21 2.21 0 0 0 1.172-.894 2.376 2.376 0 0 0 .625-1.412 1.189 1.189 0 0 0-.476-.954 1.214 1.214 0 0 0-1.03-.236 2.054 2.054 0 0 0-1.138.832zm-3.2 1.51l5.143-6.583 1.262.985-1.853 2.372a2.265 2.265 0 0 1 1.9.416 2.364 2.364 0 0 1 .949 1.757 3.318 3.318 0 0 1-.846 2.258 3.512 3.512 0 0 1-2.052 1.427 2.3 2.3 0 0 1-1.927-.444 2.214 2.214 0 0 1-.647-.834 2.458 2.458 0 0 1-.213-1.138l-.547.7zM-129.93 21l3.208-5.132 1.356.848-3.206 5.132zm3.642-5.828l.785-1.257 1.358.848-.785 1.257zm-9.765 2.2l4.017-7.246 1.476.818-3.334 6.015 3.667 2.032-.682 1.231zm-4.62-5.7a1.548 1.548 0 0 0-.013-1.117 1.107 1.107 0 0 0-.681-.6 1.113 1.113 0 0 0-.941.1 1.465 1.465 0 0 0-.64.882zm-.588 1.512l1.436.747a2.611 2.611 0 0 1-1.338.97 2.851 2.851 0 0 1-1.721-.076 2.7 2.7 0 0 1-1.9-1.7 3.459 3.459 0 0 1 .074-2.169 3.335 3.335 0 0 1 1.478-2 2.59 2.59 0 0 1 2.154-.2 2.688 2.688 0 0 1 1.752 1.508 3.961 3.961 0 0 1-.135 2.829l-3.816-1.24a1.618 1.618 0 0 0 .025 1.172 1.215 1.215 0 0 0 .757.662.974.974 0 0 0 .664 0 1.256 1.256 0 0 0 .571-.506zm-5.556.282l-1.559-.36.694-3.01a4.852 4.852 0 0 0 .186-1.258.9.9 0 0 0-.226-.512.947.947 0 0 0-.5-.279A1.272 1.272 0 0 0-149 8.1a1.155 1.155 0 0 0-.578.488 5.166 5.166 0 0 0-.432 1.328l-.617 2.671-1.561-.361 1.361-5.9 1.448.334-.2.867a2.422 2.422 0 0 1 2.176-.552 2.408 2.408 0 0 1 .9.4 1.64 1.64 0 0 1 .537.625 1.756 1.756 0 0 1 .154.726 4.943 4.943 0 0 1-.158 1.074zm-10.877-4.882a2 2 0 0 0 .329 1.405 1.357 1.357 0 0 0 1.019.551 1.351 1.351 0 0 0 1.081-.4 2.026 2.026 0 0 0 .522-1.358 1.983 1.983 0 0 0-.329-1.394 1.342 1.342 0 0 0-1.013-.551 1.358 1.358 0 0 0-1.086.4 2 2 0 0 0-.522 1.344zm-1.632-.2a3.313 3.313 0 0 1 .5-1.513 2.7 2.7 0 0 1 1.193-1.056A3.276 3.276 0 0 1-156 5.529a3.019 3.019 0 0 1 2.182 1.047 3.08 3.08 0 0 1 .718 2.311 3.13 3.13 0 0 1-1.04 2.208 2.994 2.994 0 0 1-2.289.745 3.5 3.5 0 0 1-1.557-.485 2.584 2.584 0 0 1-1.069-1.181 3.686 3.686 0 0 1-.269-1.794zm-3.2 3.088l.145-8.353 1.6.027-.145 8.353zm-4.116-3.1l-1.365-3.013-.909 3.172zm3.329 3.079l-1.831.128-.86-1.843-3.331.233-.556 1.941-1.784.125 2.662-8.561 1.78-.123zM-177.38 9.8a1.544 1.544 0 0 0-.62-.93 1.1 1.1 0 0 0-.9-.133 1.11 1.11 0 0 0-.736.595 1.468 1.468 0 0 0-.057 1.088zm.331 1.588l1.611-.157a2.625 2.625 0 0 1-.593 1.544 2.854 2.854 0 0 1-1.486.873 2.708 2.708 0 0 1-2.524-.392 3.478 3.478 0 0 1-1.118-1.858 3.333 3.333 0 0 1 .152-2.481 2.584 2.584 0 0 1 1.7-1.338 2.691 2.691 0 0 1 2.291.311 3.955 3.955 0 0 1 1.427 2.446l-3.875 1.039a1.611 1.611 0 0 0 .66.97 1.218 1.218 0 0 0 .995.144.99.99 0 0 0 .557-.361 1.252 1.252 0 0 0 .203-.741zm-9.507 1.85a2.183 2.183 0 0 0 .855 1.182 1.148 1.148 0 0 0 1.019.088 1.279 1.279 0 0 0 .762-.784 2.015 2.015 0 0 0-.11-1.414 2.116 2.116 0 0 0-.863-1.164 1.23 1.23 0 0 0-1.078-.076 1.186 1.186 0 0 0-.725.758 2.1 2.1 0 0 0 .141 1.408zm-.063 3.826l1.785-.448a.638.638 0 0 0 .355.334 1.2 1.2 0 0 0 .731-.1 1.836 1.836 0 0 0 .811-.514.777.777 0 0 0 .154-.492 2.522 2.522 0 0 0-.2-.713l-.316-.824a2.165 2.165 0 0 1-1.341 1.564 2.228 2.228 0 0 1-2.172-.27 3.514 3.514 0 0 1-1.248-1.693 3.346 3.346 0 0 1-.149-2.436 2.365 2.365 0 0 1 1.412-1.4 2.219 2.219 0 0 1 2.081.257l-.3-.791 1.4-.537 1.946 5.069a5.394 5.394 0 0 1 .409 1.557 1.955 1.955 0 0 1-.164.954 2.2 2.2 0 0 1-.625.747 4.524 4.524 0 0 1-1.2.644 3.5 3.5 0 0 1-2.226.291 1.658 1.658 0 0 1-1.079-1.017c-.019-.046-.039-.111-.063-.184zm-6.664-.41a2.76 2.76 0 0 0 .914 1.1 1.21 1.21 0 0 0 1.25.024 1.175 1.175 0 0 0 .595-.868 2.176 2.176 0 0 0-.341-1.416 2.384 2.384 0 0 0-1.056-1.13 1.19 1.19 0 0 0-1.068.066 1.2 1.2 0 0 0-.613.858 2.04 2.04 0 0 0 .321 1.364zm5.268.689l-1.3.721-.431-.777a2.421 2.421 0 0 1-.39 1.1 2.255 2.255 0 0 1-.769.715 2.313 2.313 0 0 1-1.97.132 3.434 3.434 0 0 1-1.787-1.691 3.39 3.39 0 0 1-.5-2.4 2.363 2.363 0 0 1 1.213-1.588 2.269 2.269 0 0 1 1.949-.112l-1.459-2.632 1.4-.775zm-9.312 1.387a1.549 1.549 0 0 0-.9-.662 1.1 1.1 0 0 0-.888.181 1.111 1.111 0 0 0-.49.811 1.466 1.466 0 0 0 .319 1.042zm.853 1.378l1.461-.7a2.606 2.606 0 0 1-.03 1.652 2.83 2.83 0 0 1-1.1 1.328 2.7 2.7 0 0 1-2.5.5 3.466 3.466 0 0 1-1.687-1.365 3.337 3.337 0 0 1-.706-2.383 2.589 2.589 0 0 1 1.136-1.84 2.69 2.69 0 0 1 2.258-.492 3.96 3.96 0 0 1 2.179 1.811l-3.285 2.3a1.609 1.609 0 0 0 .951.686 1.216 1.216 0 0 0 .985-.206.986.986 0 0 0 .4-.529 1.257 1.257 0 0 0-.06-.764zm-4.235 5.745l-5.37-6.4 1.226-1.029 5.37 6.4zm-5.669 5.544l-5.684-2.826 1.081-1.118 3.64 1.937-2.128-3.5 1.073-1.111 3.554 2.029-2.049-3.588 1.1-1.135 3 5.6-1.069 1.108-3.524-1.954 2.088 3.441zm-6.671 3.765a2.009 2.009 0 0 0 1.368.465 1.362 1.362 0 0 0 1.007-.573 1.344 1.344 0 0 0 .23-1.13 2.02 2.02 0 0 0-.875-1.162 1.989 1.989 0 0 0-1.356-.459 1.348 1.348 0 0 0-1.005.568 1.362 1.362 0 0 0-.229 1.129 2 2 0 0 0 .863 1.16zm-1.034 1.277a3.3 3.3 0 0 1-1.019-1.226 2.7 2.7 0 0 1-.265-1.569 3.3 3.3 0 0 1 .627-1.535 3.018 3.018 0 0 1 2.046-1.3 3.083 3.083 0 0 1 2.339.615 3.126 3.126 0 0 1 1.321 2.054 3 3 0 0 1-.581 2.336 3.526 3.526 0 0 1-1.237 1.062 2.586 2.586 0 0 1-1.569.282 3.71 3.71 0 0 1-1.659-.721zm1.787 2.9l-.8 1.387-2.674-1.544a4.748 4.748 0 0 0-1.15-.546.9.9 0 0 0-.554.066.964.964 0 0 0-.416.4 1.3 1.3 0 0 0-.177.762 1.165 1.165 0 0 0 .3.694 5.246 5.246 0 0 0 1.144.8l2.373 1.372-.8 1.385-5.24-3.025.743-1.287.77.446a2.427 2.427 0 0 1 .108-2.249 2.42 2.42 0 0 1 .649-.743 1.636 1.636 0 0 1 .755-.329 1.781 1.781 0 0 1 .74.064 4.982 4.982 0 0 1 .975.461zm-5.9 12.5l-7.746-3.13.632-1.562 3.439 1.388-2.162-4.549.85-2.1 1.838 4.135 5.971-1.164-.818 2.024-4.495.659.782 1.792 2.341.946z" class="cls-1" data-name="Path 8246" transform="translate(227.463 -3.115)"/>
    <path id="Path_8247" d="M-182.264 66.346c-8.515-2.226-17.667-13.432-8.5-23.56s4.645-15.517 4.807-19.615c0 0 15.121 9.091 13.441 24.662-1.615 14.951-13.576 15.192-9.745 18.513" class="cls-2" data-name="Path 8247" transform="translate(249.075 10.707)"/>
    <path id="Path_8248" d="M-118.595 43.806a49.4 49.4 0 0 1-49.384 48.756 49.4 49.4 0 0 1-49.384-48.756 24.7 24.7 0 0 0 24.689 24.059 24.7 24.7 0 0 0 24.7-24.7 24.7 24.7 0 0 0 24.7 24.7 24.7 24.7 0 0 0 24.687-24.059m-49.381-.958v0z" class="cls-2" data-name="Path 8248" transform="translate(233.375 24.267)"/>
</svg>
